<svg width="135.403076" height="56.000000" viewBox="0 0 135.403 56" fill="none" xmlns="http://www.w3.org/2000/svg" xmlns:xlink="http://www.w3.org/1999/xlink">
	<desc>
			Created with Pixso.
	</desc>
	<defs>
		<clipPath id="clip1207_161">
			<rect id="Dummy Logo/02" width="135.403000" height="56.000004" fill="white" fill-opacity="0"/>
		</clipPath>
	</defs>
	<rect id="Dummy Logo/02" width="135.403000" height="56.000004" fill="#FFFFFF" fill-opacity="0"/>
	<g clip-path="url(#clip1207_161)">
		<path id="Vector" d="M0 24.3354L0 29.2598C1.69531 29.2588 3.37427 29.5894 4.94067 30.2329C6.50732 30.8765 7.93042 31.8203 9.12915 33.0107C10.3274 34.2002 11.2778 35.6128 11.9258 37.167C12.5737 38.7217 12.9067 40.3877 12.9055 42.0698L17.8633 42.0698C17.8589 37.3687 15.9756 32.8608 12.6265 29.5361C9.27759 26.2109 4.73657 24.3408 0 24.3354L0 24.3354Z" fill="#109BE9" fill-opacity="1.000000" fill-rule="nonzero"/>
		<path id="Vector" d="M24.7935 15.4697L16.9365 15.4697C20.9111 17.9697 24.2791 21.3125 26.7983 25.2573L26.7983 17.4585C26.7981 16.9307 26.5867 16.4248 26.2107 16.0522C25.8347 15.6792 25.325 15.4697 24.7935 15.4697Z" fill="#109BE9" fill-opacity="1.000000" fill-rule="nonzero"/>
		<path id="Vector" d="M4.93652 15.4702L0 15.4702L0 19.9038C5.9209 19.9102 11.5974 22.2476 15.7842 26.4028C19.9709 30.5586 22.3259 36.1934 22.3323 42.0703L26.7986 42.0703L26.7986 37.1704C25.7888 31.7847 23.1597 26.8291 19.2571 22.9556C15.3547 19.082 10.3623 16.4727 4.93652 15.4702Z" fill="#109BE9" fill-opacity="1.000000" fill-rule="nonzero"/>
		<path id="Vector" d="M35.8037 18.3979L38.9504 18.3979L38.9504 34.1411L35.8037 34.1411L35.8037 18.3979Z" fill="#109BE9" fill-opacity="1.000000" fill-rule="evenodd"/>
		<path id="Vector" d="M50.52 25.2192C49.9963 24.7466 49.3831 24.3818 48.7161 24.146C47.2834 23.6465 45.7222 23.6465 44.2896 24.146C43.6223 24.3813 43.0088 24.7461 42.4849 25.2192C41.9709 25.6895 41.5603 26.2598 41.2788 26.895C40.988 27.5879 40.8381 28.3306 40.8381 29.0815C40.8381 29.832 40.988 30.5752 41.2788 31.2676C41.5593 31.9048 41.97 32.4766 42.4849 32.9478C43.0078 33.4209 43.6211 33.7856 44.2881 34.02C45.7207 34.5205 47.2822 34.5205 48.7148 34.02C49.3821 33.7856 49.9954 33.4209 50.5188 32.9478C51.0334 32.4766 51.4438 31.9043 51.7246 31.2676C52.0156 30.5752 52.1653 29.832 52.1653 29.0815C52.1653 28.3306 52.0156 27.5879 51.7246 26.895C51.4434 26.2603 51.0334 25.6895 50.52 25.2192ZM48.3594 30.9351C47.8499 31.3911 47.1882 31.6431 46.5024 31.6431C45.8167 31.6431 45.1553 31.3911 44.6455 30.9351C44.2173 30.4106 43.9836 29.7559 43.9836 29.0801C43.9836 28.4048 44.2173 27.75 44.6455 27.2251C45.1553 26.7695 45.8167 26.5176 46.5024 26.5176C47.1882 26.5176 47.8499 26.7695 48.3594 27.2251C48.7876 27.75 49.0212 28.4048 49.0212 29.0801C49.0212 29.7559 48.7876 30.4106 48.3594 30.9351Z" fill="#109BE9" fill-opacity="1.000000" fill-rule="nonzero"/>
		<path id="Vector" d="M61.8171 25.354L61.7778 25.354C61.6323 25.1509 61.4631 24.9658 61.2742 24.8022C61.0452 24.6011 60.7917 24.4297 60.5195 24.291C59.8318 23.9409 59.0684 23.7622 58.2954 23.771C57.6179 23.7593 56.948 23.9131 56.3447 24.2192C55.7825 24.5083 55.2861 24.9087 54.8862 25.396C54.4785 25.8979 54.1658 26.4692 53.9631 27.082C53.7476 27.7134 53.6379 28.3755 53.6382 29.042C53.6301 29.7578 53.751 30.4688 53.9949 31.1421C54.2161 31.7568 54.5605 32.3203 55.0076 32.7983C55.4531 33.2661 55.9937 33.6348 56.5938 33.8799C57.2458 34.1436 57.9451 34.2749 58.6494 34.2646C59.1704 34.2559 59.6855 34.1538 60.1699 33.9634C60.7131 33.7588 61.1836 33.3999 61.5232 32.9321L61.5654 32.9321L61.5654 33.9121C61.5774 34.2388 61.5229 34.5649 61.406 34.8706C61.2888 35.1763 61.1111 35.4556 60.8835 35.6919C60.5947 35.9458 60.2571 36.1387 59.8909 36.2588C59.5249 36.3794 59.1379 36.4243 58.7537 36.3921C58.1445 36.3989 57.5408 36.2783 56.9814 36.0381C56.4253 35.791 55.9062 35.4688 55.4392 35.0806L53.698 37.6597C54.4097 38.229 55.2417 38.6309 56.1318 38.8364C57.0125 39.0376 57.9136 39.1387 58.8171 39.1382C60.8032 39.1382 62.282 38.6421 63.2539 37.6494C64.2256 36.6567 64.7117 35.2026 64.7122 33.2871L64.7122 24.021L61.8208 24.021L61.8171 25.354ZM61.6282 29.9663C61.5042 30.2627 61.3223 30.5317 61.093 30.7578C60.8596 30.9888 60.5859 31.1758 60.2854 31.3096C59.9734 31.4468 59.6357 31.5181 59.2944 31.5181C58.9529 31.5181 58.6152 31.4468 58.3032 31.3096C58.0066 31.1738 57.7366 30.9868 57.5056 30.7578C57.2754 30.5298 57.0928 30.2583 56.968 29.96C56.8435 29.6616 56.7793 29.3418 56.7793 29.019C56.7793 28.6963 56.8435 28.3765 56.968 28.0781C57.0928 27.7798 57.2754 27.5083 57.5056 27.2803C57.7368 27.0513 58.0066 26.8643 58.3032 26.728C58.6152 26.5908 58.9529 26.52 59.2944 26.52C59.6357 26.52 59.9734 26.5908 60.2854 26.728C60.5859 26.8623 60.8594 27.0493 61.093 27.2803C61.4392 27.6255 61.6748 28.0649 61.77 28.543C61.8652 29.0205 61.8159 29.5161 61.6282 29.9663Z" fill="#109BE9" fill-opacity="1.000000" fill-rule="nonzero"/>
		<path id="Vector" d="M76.5337 25.2192C76.01 24.7466 75.3967 24.3818 74.7297 24.146C73.2971 23.6465 71.7358 23.6465 70.3032 24.146C69.636 24.3813 69.0225 24.7461 68.4985 25.2192C67.9846 25.6895 67.574 26.2598 67.2925 26.895C67.0017 27.5879 66.8518 28.3306 66.8518 29.0815C66.8518 29.832 67.0017 30.5752 67.2925 31.2676C67.573 31.9048 67.9836 32.4766 68.4985 32.9478C69.022 33.4209 69.6355 33.7856 70.3032 34.02C71.7356 34.5205 73.2974 34.5205 74.7297 34.02C75.3972 33.7856 76.0105 33.4209 76.5337 32.9478C77.0486 32.4766 77.4592 31.9048 77.7397 31.2676C78.0308 30.5752 78.1804 29.832 78.1804 29.0815C78.1804 28.3306 78.0308 27.5879 77.7397 26.895C77.4583 26.2598 77.0476 25.6895 76.5337 25.2192ZM74.373 30.9351C73.8635 31.3911 73.2019 31.6431 72.5161 31.6431C71.8303 31.6431 71.1689 31.3911 70.6592 30.9351C70.231 30.4106 69.9973 29.7559 69.9973 29.0801C69.9973 28.4048 70.231 27.75 70.6592 27.2251C71.1689 26.7695 71.8303 26.5176 72.5161 26.5176C73.2019 26.5176 73.8635 26.7695 74.373 27.2251C74.8013 27.75 75.0349 28.4048 75.0349 29.0801C75.0349 29.7559 74.8013 30.4106 74.373 30.9351Z" fill="#109BE9" fill-opacity="1.000000" fill-rule="nonzero"/>
		<path id="Vector" d="M80.6672 24.0908L82.3547 24.0908L82.3547 34.1406L80.6672 34.1406L80.6672 24.0908Z" fill="#109BE9" fill-opacity="1.000000" fill-rule="evenodd"/>
		<path id="Vector" d="M81.5115 18.9375C81.3477 18.9346 81.1853 18.9653 81.0342 19.0283C80.8833 19.0913 80.7473 19.1846 80.6348 19.3022C80.4631 19.4741 80.3467 19.6924 80.2998 19.9297C80.2529 20.167 80.2781 20.4131 80.3718 20.6362C80.4656 20.8594 80.6238 21.0503 80.8264 21.1841C81.0291 21.3184 81.2673 21.3901 81.511 21.3901C81.7546 21.3901 81.9929 21.3184 82.1956 21.1841C82.3984 21.0503 82.5566 20.8594 82.6501 20.6362C82.7439 20.4131 82.769 20.167 82.7222 19.9297C82.6753 19.6924 82.5588 19.4741 82.3872 19.3022C82.2749 19.1846 82.1389 19.0908 81.988 19.0283C81.8374 18.9653 81.6748 18.9346 81.5115 18.9375Z" fill="#109BE9" fill-opacity="1.000000" fill-rule="nonzero"/>
		<path id="Vector" d="M94.8379 25.3398C94.3633 24.8589 93.7922 24.4819 93.1616 24.2334C92.4695 23.9624 91.7312 23.8276 90.9873 23.8364C90.2866 23.8281 89.594 23.9829 88.9641 24.2876C88.3438 24.5942 87.7947 25.0254 87.3521 25.5542L87.3069 25.5542L87.3069 24.0913L85.6213 24.0913L85.6213 39.0376L87.3069 39.0376L87.3069 32.3594L87.3499 32.3594C87.708 32.9722 88.2302 33.4741 88.8584 33.8101C89.5876 34.2153 90.4128 34.4189 91.2483 34.4009C91.9324 34.4048 92.6101 34.2695 93.2393 34.0029C93.8467 33.7476 94.395 33.3711 94.8506 32.897C95.3132 32.4131 95.677 31.8442 95.9219 31.2227C96.4409 29.8667 96.4409 28.3691 95.9219 27.0127C95.6748 26.3901 95.3064 25.8213 94.8379 25.3398ZM94.2427 30.5898C94.0854 31.0273 93.8394 31.4282 93.5198 31.7681C93.2 32.1074 92.8137 32.3779 92.3845 32.563C91.4353 32.9492 90.3716 32.9492 89.4226 32.563C88.9927 32.3779 88.6057 32.1069 88.2856 31.7671C87.9656 31.4272 87.7195 31.0259 87.562 30.5879C87.231 29.6353 87.231 28.6001 87.562 27.6479C87.7195 27.2095 87.9656 26.8081 88.2856 26.4683C88.6057 26.1284 88.9927 25.8579 89.4226 25.6724C90.3716 25.2866 91.4353 25.2866 92.3845 25.6724C92.8142 25.8579 93.2012 26.1284 93.5212 26.4683C93.8413 26.8081 94.0876 27.2095 94.2449 27.6479C94.5762 28.6001 94.5762 29.6353 94.2449 30.5879L94.2427 30.5898Z" fill="#109BE9" fill-opacity="1.000000" fill-rule="nonzero"/>
		<path id="Vector" d="M104.812 29.1196C104.491 28.8813 104.134 28.6968 103.754 28.5723C103.336 28.4321 102.91 28.3208 102.478 28.2388C102.153 28.1841 101.832 28.1123 101.515 28.0249C101.232 27.9487 100.957 27.8477 100.693 27.7236C100.48 27.6284 100.289 27.4932 100.128 27.3262C99.9917 27.1768 99.9182 26.9805 99.9231 26.7788C99.9197 26.561 99.9841 26.3472 100.107 26.167C100.229 25.9888 100.387 25.8384 100.572 25.7266C100.77 25.6079 100.986 25.521 101.211 25.4692C101.442 25.4121 101.678 25.3833 101.916 25.3828C102.368 25.3691 102.815 25.4849 103.203 25.7163C103.553 25.9346 103.846 26.2329 104.058 26.5854L105.464 25.6621C105.153 25.0518 104.646 24.561 104.025 24.2656C103.398 23.9771 102.715 23.8301 102.024 23.8364C101.556 23.8354 101.09 23.9004 100.64 24.0298C100.208 24.1519 99.7991 24.3408 99.4272 24.5898C99.0718 24.8281 98.7759 25.144 98.562 25.5132C98.3406 25.9062 98.2288 26.3506 98.2375 26.8013C98.22 27.2417 98.3208 27.6792 98.5295 28.0688C98.7202 28.3945 98.9861 28.6704 99.3054 28.874C99.658 29.0947 100.04 29.2646 100.441 29.3784C100.874 29.5073 101.328 29.6221 101.804 29.7222C102.079 29.7798 102.345 29.8442 102.604 29.9155C102.847 29.98 103.081 30.0776 103.297 30.2051C103.488 30.3174 103.653 30.4673 103.783 30.6455C103.914 30.8428 103.978 31.0757 103.968 31.311C103.975 31.5586 103.907 31.8027 103.773 32.0112C103.639 32.209 103.461 32.374 103.254 32.4941C103.03 32.627 102.785 32.7217 102.529 32.7744C102.27 32.8306 102.005 32.8599 101.739 32.8604C101.213 32.8804 100.692 32.7539 100.236 32.4951C99.8152 32.2295 99.4456 31.8926 99.1431 31.4995L97.8032 32.5308C98.218 33.1699 98.8069 33.6797 99.5015 34.0005C100.213 34.2812 100.975 34.4165 101.74 34.3984C102.239 34.3984 102.736 34.3413 103.221 34.2266C103.683 34.1206 104.123 33.9355 104.52 33.6792C104.899 33.4292 105.213 33.0933 105.437 32.6992C105.679 32.252 105.798 31.7495 105.783 31.2417C105.797 30.8057 105.708 30.3721 105.524 29.9756C105.356 29.6396 105.113 29.3467 104.812 29.1196Z" fill="#109BE9" fill-opacity="1.000000" fill-rule="nonzero"/>
		<path id="Vector" d="M116.97 31.7573L116.97 24.0908L115.282 24.0908L115.282 28.9907C115.288 29.519 115.226 30.0459 115.098 30.5586C114.99 30.9985 114.799 31.4136 114.534 31.7822C114.283 32.125 113.948 32.3984 113.56 32.5771C113.115 32.7734 112.631 32.8691 112.143 32.8569C111.814 32.8833 111.482 32.8311 111.177 32.7036C110.873 32.5767 110.603 32.3789 110.391 32.127C109.986 31.5415 109.787 30.8389 109.827 30.1299L109.827 24.0908L108.139 24.0908L108.139 30.2969C108.134 30.8594 108.21 31.4199 108.366 31.9609C108.502 32.4404 108.743 32.8843 109.072 33.2607C109.4 33.6289 109.811 33.9165 110.27 34.1006C110.818 34.313 111.403 34.4155 111.99 34.4019C112.386 34.4048 112.78 34.3506 113.159 34.2402C113.501 34.1411 113.829 33.9966 114.132 33.811C114.408 33.6421 114.659 33.4365 114.878 33.1992C115.075 32.9883 115.24 32.749 115.366 32.4902L115.409 32.4902C115.409 32.7773 115.416 33.0571 115.43 33.3301C115.445 33.603 115.452 33.875 115.452 34.1465L117.053 34.1465C117.053 33.8164 117.039 33.4512 117.01 33.0508C116.98 32.6504 116.967 32.2192 116.97 31.7573Z" fill="#109BE9" fill-opacity="1.000000" fill-rule="nonzero"/>
		<path id="Vector" d="M135.208 26.2925C135.096 25.8062 134.874 25.3516 134.559 24.9624C134.241 24.5859 133.832 24.2969 133.369 24.1226C132.787 23.9141 132.17 23.8154 131.552 23.8325C130.88 23.8037 130.215 23.9795 129.648 24.3374C129.122 24.7119 128.68 25.1914 128.35 25.7446C128.263 25.5723 128.152 25.3755 128.014 25.1538C127.861 24.9141 127.667 24.7036 127.441 24.5308C127.163 24.3208 126.854 24.1553 126.524 24.0405C126.082 23.8931 125.616 23.8237 125.15 23.8364C124.755 23.833 124.361 23.8872 123.982 23.998C123.639 24.0967 123.312 24.2412 123.008 24.4268C122.732 24.5962 122.481 24.8018 122.262 25.0386C122.065 25.25 121.901 25.4888 121.775 25.748L121.731 25.748C121.731 25.4609 121.724 25.1821 121.71 24.9077C121.696 24.6333 121.688 24.3638 121.688 24.0918L120.088 24.0918C120.088 24.4214 120.102 24.7866 120.131 25.187C120.159 25.5874 120.174 26.0171 120.174 26.4761L120.174 34.1416L121.863 34.1416L121.863 29.2456C121.857 28.7173 121.919 28.1904 122.047 27.6772C122.155 27.2373 122.346 26.8218 122.611 26.4536C122.862 26.1108 123.197 25.8369 123.584 25.6592C124.03 25.4624 124.514 25.3667 125.002 25.3789C125.291 25.3545 125.581 25.4062 125.843 25.5293C126.105 25.6523 126.33 25.8418 126.494 26.0791C126.856 26.8154 127.013 27.6348 126.949 28.4521L126.949 34.1431L128.633 34.1431L128.633 28.3428C128.628 27.9297 128.698 27.5186 128.839 27.1299C128.964 26.7852 129.156 26.4678 129.403 26.1958C129.636 25.9414 129.92 25.7368 130.236 25.5947C130.555 25.4512 130.902 25.3779 131.253 25.3799C131.669 25.3647 132.084 25.4453 132.464 25.6157C132.764 25.7593 133.024 25.9736 133.221 26.2393C133.411 26.5024 133.544 26.8022 133.611 27.1191C133.683 27.4507 133.719 27.7891 133.719 28.1284L133.719 34.1416L135.403 34.1416L135.403 28.0425C135.409 27.4536 135.344 26.8657 135.208 26.2925Z" fill="#109BE9" fill-opacity="1.000000" fill-rule="nonzero"/>
	</g>
</svg>
