<svg width="135.403076" height="56.000004" viewBox="0 0 135.403 56" fill="none" xmlns="http://www.w3.org/2000/svg" xmlns:xlink="http://www.w3.org/1999/xlink">
	<desc>
			Created with Pixso.
	</desc>
	<defs>
		<clipPath id="clip1101_2457">
			<rect id="Dummy Logo/02" width="135.403000" height="56.000004" fill="white" fill-opacity="0"/>
		</clipPath>
	</defs>
	<rect id="Dummy Logo/02" width="135.403000" height="56.000004" fill="#FFFFFF" fill-opacity="0"/>
	<g clip-path="url(#clip1101_2457)">
		<path id="Vector" d="M0 24.3355L0 29.26C1.69531 29.2588 3.37427 29.5895 4.94067 30.2331C6.50732 30.8766 7.93042 31.8205 9.12915 33.0106C10.3274 34.2003 11.2778 35.6128 11.9258 37.1672C12.5737 38.7217 12.9067 40.3877 12.9055 42.07L17.8633 42.07C17.8589 37.3685 15.9756 32.8608 12.6265 29.536C9.27759 26.2112 4.73657 24.3409 0 24.3355L0 24.3355Z" fill="#FFFFFF" fill-opacity="1.000000" fill-rule="nonzero"/>
		<path id="Vector" d="M24.7935 15.47L16.9365 15.47C20.9111 17.9701 24.2791 21.3126 26.7983 25.2574L26.7983 17.4587C26.7981 16.9311 26.5867 16.4253 26.2107 16.0524C25.8347 15.6795 25.325 15.47 24.7935 15.47Z" fill="#FFFFFF" fill-opacity="1.000000" fill-rule="nonzero"/>
		<path id="Vector" d="M4.93652 15.47L0 15.47L0 19.9038C5.9209 19.9099 11.5974 22.2472 15.7842 26.4028C19.9709 30.5585 22.3259 36.193 22.3323 42.07L26.7986 42.07L26.7986 37.17C25.7888 31.7846 23.1597 26.8289 19.2571 22.9555C15.3547 19.082 10.3623 16.4723 4.93652 15.47Z" fill="#FFFFFF" fill-opacity="1.000000" fill-rule="nonzero"/>
		<path id="Vector" d="M35.8037 18.3981L38.9504 18.3981L38.9504 34.1411L35.8037 34.1411L35.8037 18.3981Z" fill="#FFFFFF" fill-opacity="1.000000" fill-rule="evenodd"/>
		<path id="Vector" d="M50.52 25.2189C49.9963 24.7462 49.3831 24.3815 48.7161 24.1458C47.2834 23.6465 45.7222 23.6465 44.2896 24.1458C43.6223 24.3813 43.0088 24.7461 42.4849 25.2189C41.9709 25.6892 41.5603 26.2597 41.2788 26.8947C40.988 27.5875 40.8381 28.3306 40.8381 29.0812C40.8381 29.8317 40.988 30.5748 41.2788 31.2676C41.5593 31.9045 41.97 32.4765 42.4849 32.9476C43.0078 33.4208 43.6211 33.7854 44.2881 34.02C45.7207 34.5202 47.2822 34.5202 48.7148 34.02C49.3821 33.7854 49.9954 33.4208 50.5188 32.9476C51.0334 32.4763 51.4438 31.9043 51.7246 31.2676C52.0156 30.5748 52.1653 29.8317 52.1653 29.0812C52.1653 28.3306 52.0156 27.5875 51.7246 26.8947C51.4434 26.2599 51.0334 25.6894 50.52 25.2189ZM48.3594 30.9351C47.8499 31.3907 47.1882 31.6428 46.5024 31.6428C45.8167 31.6428 45.1553 31.3907 44.6455 30.9351C44.2173 30.4103 43.9836 29.7555 43.9836 29.0801C43.9836 28.4047 44.2173 27.7499 44.6455 27.2251C45.1553 26.7695 45.8167 26.5174 46.5024 26.5174C47.1882 26.5174 47.8499 26.7695 48.3594 27.2251C48.7876 27.7499 49.0212 28.4047 49.0212 29.0801C49.0212 29.7555 48.7876 30.4103 48.3594 30.9351Z" fill="#FFFFFF" fill-opacity="1.000000" fill-rule="nonzero"/>
		<path id="Vector" d="M61.8171 25.354L61.7778 25.354C61.6323 25.1512 61.4631 24.9661 61.2742 24.8024C61.0452 24.6014 60.7917 24.4297 60.5195 24.2914C59.8318 23.9411 59.0684 23.7626 58.2954 23.7713C57.6179 23.7595 56.948 23.9134 56.3447 24.2193C55.7825 24.5083 55.2861 24.9088 54.8862 25.396C54.4785 25.8982 54.1658 26.4695 53.9631 27.0823C53.7476 27.7136 53.6379 28.3757 53.6382 29.0423C53.6301 29.7578 53.751 30.469 53.9949 31.1423C54.2161 31.7568 54.5605 32.3202 55.0076 32.7985C55.4531 33.2665 55.9937 33.6352 56.5938 33.88C57.2458 34.1439 57.9451 34.2748 58.6494 34.265C59.1704 34.2561 59.6855 34.1539 60.1699 33.9633C60.7131 33.7588 61.1836 33.4002 61.5232 32.9322L61.5654 32.9322L61.5654 33.9122C61.5774 34.2391 61.5229 34.565 61.406 34.8707C61.2888 35.1764 61.1111 35.4558 60.8835 35.6923C60.5947 35.9459 60.2571 36.1388 59.8909 36.2591C59.5249 36.3794 59.1379 36.4247 58.7537 36.3923C58.1445 36.3991 57.5408 36.2784 56.9814 36.0381C56.4253 35.7914 55.9062 35.4691 55.4392 35.0805L53.698 37.66C54.4097 38.229 55.2417 38.6312 56.1318 38.8367C57.0125 39.0377 57.9136 39.1389 58.8171 39.1384C60.8032 39.1384 62.282 38.6421 63.2539 37.6495C64.2256 36.6569 64.7117 35.2028 64.7122 33.2871L64.7122 24.0212L61.8208 24.0212L61.8171 25.354ZM61.6282 29.9663C61.5042 30.2626 61.3223 30.5317 61.093 30.758C60.8596 30.9888 60.5859 31.1757 60.2854 31.3096C59.9734 31.4472 59.6357 31.5182 59.2944 31.5182C58.9529 31.5182 58.6152 31.4472 58.3032 31.3096C58.0066 31.1738 57.7366 30.9871 57.5056 30.758C57.2754 30.5298 57.0928 30.2587 56.968 29.9603C56.8435 29.662 56.7793 29.3422 56.7793 29.0192C56.7793 28.6962 56.8435 28.3764 56.968 28.0781C57.0928 27.7797 57.2754 27.5087 57.5056 27.2804C57.7368 27.0513 58.0066 26.8644 58.3032 26.7281C58.6152 26.591 58.9529 26.5202 59.2944 26.5202C59.6357 26.5202 59.9734 26.591 60.2854 26.7281C60.5859 26.8625 60.8594 27.0496 61.093 27.2804C61.4392 27.6258 61.6748 28.0651 61.77 28.543C61.8652 29.0209 61.8159 29.5161 61.6282 29.9663Z" fill="#FFFFFF" fill-opacity="1.000000" fill-rule="nonzero"/>
		<path id="Vector" d="M76.5337 25.2189C76.01 24.7462 75.3967 24.3815 74.7297 24.1458C73.2971 23.6465 71.7358 23.6465 70.3032 24.1458C69.636 24.3813 69.0225 24.7461 68.4985 25.2189C67.9846 25.6892 67.574 26.2597 67.2925 26.8947C67.0017 27.5875 66.8518 28.3306 66.8518 29.0812C66.8518 29.8317 67.0017 30.5748 67.2925 31.2676C67.573 31.9045 67.9836 32.4765 68.4985 32.9476C69.022 33.4209 69.6355 33.7855 70.3032 34.02C71.7356 34.5202 73.2974 34.5202 74.7297 34.02C75.3972 33.7854 76.0105 33.4208 76.5337 32.9476C77.0486 32.4765 77.4592 31.9045 77.7397 31.2676C78.0308 30.5748 78.1804 29.8317 78.1804 29.0812C78.1804 28.3306 78.0308 27.5875 77.7397 26.8947C77.4583 26.2597 77.0476 25.6892 76.5337 25.2189ZM74.373 30.9351C73.8635 31.3907 73.2019 31.6428 72.5161 31.6428C71.8303 31.6428 71.1689 31.3907 70.6592 30.9351C70.231 30.4103 69.9973 29.7555 69.9973 29.0801C69.9973 28.4047 70.231 27.7499 70.6592 27.2251C71.1689 26.7695 71.8303 26.5174 72.5161 26.5174C73.2019 26.5174 73.8635 26.7695 74.373 27.2251C74.8013 27.7499 75.0349 28.4047 75.0349 29.0801C75.0349 29.7555 74.8013 30.4103 74.373 30.9351Z" fill="#FFFFFF" fill-opacity="1.000000" fill-rule="nonzero"/>
		<path id="Vector" d="M80.6672 24.0912L82.3547 24.0912L82.3547 34.1411L80.6672 34.1411L80.6672 24.0912Z" fill="#FFFFFF" fill-opacity="1.000000" fill-rule="evenodd"/>
		<path id="Vector" d="M81.5115 18.9378C81.3477 18.9347 81.1853 18.9656 81.0342 19.0284C80.8833 19.0912 80.7473 19.1845 80.6348 19.3025C80.4631 19.4742 80.3467 19.6925 80.2998 19.9299C80.2529 20.1672 80.2781 20.413 80.3718 20.6363C80.4656 20.8595 80.6238 21.0502 80.8264 21.1844C81.0291 21.3186 81.2673 21.3901 81.511 21.3901C81.7546 21.3901 81.9929 21.3186 82.1956 21.1844C82.3984 21.0502 82.5566 20.8595 82.6501 20.6363C82.7439 20.413 82.769 20.1672 82.7222 19.9299C82.6753 19.6925 82.5588 19.4742 82.3872 19.3025C82.2749 19.1845 82.1389 19.0911 81.988 19.0283C81.8374 18.9655 81.6748 18.9346 81.5115 18.9378Z" fill="#FFFFFF" fill-opacity="1.000000" fill-rule="nonzero"/>
		<path id="Vector" d="M94.8379 25.34C94.3633 24.8589 93.7922 24.4819 93.1616 24.2333C92.4695 23.9626 91.7312 23.8278 90.9873 23.8364C90.2866 23.8284 89.594 23.983 88.9641 24.2879C88.3438 24.5941 87.7947 25.0254 87.3521 25.5542L87.3069 25.5542L87.3069 24.0912L85.6213 24.0912L85.6213 39.0376L87.3069 39.0376L87.3069 32.3596L87.3499 32.3596C87.708 32.9721 88.2302 33.4741 88.8584 33.81C89.5876 34.2153 90.4128 34.4193 91.2483 34.4008C91.9324 34.4051 92.6101 34.2698 93.2393 34.0032C93.8467 33.7474 94.395 33.3711 94.8506 32.8972C95.3132 32.4129 95.677 31.8443 95.9219 31.2228C96.4409 29.8668 96.4409 28.369 95.9219 27.013C95.6748 26.39 95.3064 25.8215 94.8379 25.34ZM94.2427 30.59C94.0854 31.0276 93.8394 31.4285 93.5198 31.7679C93.2 32.1073 92.8137 32.378 92.3845 32.5633C91.4353 32.9491 90.3716 32.9491 89.4226 32.5633C88.9927 32.378 88.6057 32.1071 88.2856 31.7673C87.9656 31.4275 87.7195 31.0261 87.562 30.5879C87.231 29.6355 87.231 28.6003 87.562 27.6479C87.7195 27.2097 87.9656 26.8083 88.2856 26.4685C88.6057 26.1287 88.9927 25.8578 89.4226 25.6725C90.3716 25.2867 91.4353 25.2867 92.3845 25.6725C92.8142 25.8578 93.2012 26.1287 93.5212 26.4685C93.8413 26.8083 94.0876 27.2097 94.2449 27.6479C94.5762 28.6003 94.5762 29.6355 94.2449 30.5879L94.2427 30.59Z" fill="#FFFFFF" fill-opacity="1.000000" fill-rule="nonzero"/>
		<path id="Vector" d="M104.812 29.12C104.491 28.882 104.134 28.6971 103.754 28.5726C103.336 28.4328 102.91 28.3215 102.478 28.2394C102.153 28.1844 101.832 28.1129 101.515 28.0252C101.232 27.949 100.957 27.8483 100.693 27.7242C100.48 27.6288 100.289 27.4938 100.128 27.3266C99.9917 27.1771 99.9182 26.9811 99.9231 26.7792C99.9197 26.5614 99.9841 26.3478 100.107 26.1674C100.229 25.9892 100.387 25.8391 100.572 25.7271C100.77 25.6083 100.986 25.5214 101.211 25.4695C101.442 25.4128 101.678 25.3839 101.916 25.3834C102.368 25.3694 102.815 25.4851 103.203 25.7166C103.553 25.9353 103.846 26.2332 104.058 26.586L105.464 25.6627C105.153 25.0524 104.646 24.5615 104.025 24.2662C103.398 23.9774 102.715 23.8308 102.024 23.8371C101.556 23.836 101.09 23.901 100.64 24.0303C100.208 24.1524 99.7991 24.3414 99.4272 24.5903C99.0718 24.8286 98.7759 25.1444 98.562 25.5136C98.3406 25.9068 98.2288 26.3513 98.2375 26.8016C98.22 27.2424 98.3208 27.6799 98.5295 28.0693C98.7202 28.395 98.9861 28.6709 99.3054 28.8743C99.658 29.095 100.04 29.2649 100.441 29.379C100.874 29.5078 101.328 29.6224 101.804 29.7227C102.079 29.7801 102.345 29.8445 102.604 29.9159C102.847 29.9806 103.081 30.0781 103.297 30.2057C103.488 30.318 103.653 30.4678 103.783 30.646C103.914 30.8433 103.978 31.0762 103.968 31.3117C103.975 31.5592 103.907 31.8032 103.773 32.0117C103.639 32.2093 103.461 32.3744 103.254 32.4947C103.03 32.6274 102.785 32.7221 102.529 32.7747C102.27 32.8313 102.005 32.8601 101.739 32.8608C101.213 32.881 100.692 32.7544 100.236 32.4954C99.8152 32.2299 99.4456 31.893 99.1431 31.5L97.8032 32.5311C98.218 33.1705 98.8069 33.6801 99.5015 34.0011C100.213 34.2816 100.975 34.4168 101.74 34.3987C102.239 34.3991 102.736 34.3416 103.221 34.2272C103.683 34.1213 104.123 33.936 104.52 33.6798C104.899 33.4298 105.213 33.0939 105.437 32.6998C105.679 32.2525 105.798 31.75 105.783 31.2424C105.797 30.806 105.708 30.3725 105.524 29.9761C105.356 29.64 105.113 29.347 104.812 29.12Z" fill="#FFFFFF" fill-opacity="1.000000" fill-rule="nonzero"/>
		<path id="Vector" d="M116.97 31.7576L116.97 24.0912L115.282 24.0912L115.282 28.9912C115.288 29.5195 115.226 30.0463 115.098 30.5592C114.99 30.9989 114.799 31.4141 114.534 31.7828C114.283 32.1256 113.948 32.399 113.56 32.5773C113.115 32.7737 112.631 32.8694 112.143 32.8573C111.814 32.8838 111.482 32.8312 111.177 32.7042C110.873 32.5771 110.603 32.3793 110.391 32.1272C109.986 31.5417 109.787 30.8394 109.827 30.1301L109.827 24.0912L108.139 24.0912L108.139 30.2974C108.134 30.86 108.21 31.4204 108.366 31.9613C108.502 32.4409 108.743 32.8847 109.072 33.2612C109.4 33.6292 109.811 33.9167 110.27 34.1012C110.818 34.3134 111.403 34.4157 111.99 34.4022C112.386 34.4054 112.78 34.3509 113.159 34.2405C113.501 34.1415 113.829 33.9972 114.132 33.8114C114.408 33.6426 114.659 33.4368 114.878 33.1996C115.075 32.9886 115.24 32.7496 115.366 32.4905L115.409 32.4905C115.409 32.7775 115.416 33.0575 115.43 33.3305C115.445 33.6035 115.452 33.8756 115.452 34.1467L117.053 34.1467C117.053 33.8168 117.039 33.4516 117.01 33.0512C116.98 32.6508 116.967 32.2196 116.97 31.7576Z" fill="#FFFFFF" fill-opacity="1.000000" fill-rule="nonzero"/>
		<path id="Vector" d="M135.208 26.2927C135.096 25.8064 134.874 25.3517 134.559 24.9627C134.241 24.5863 133.832 24.2971 133.369 24.1227C132.787 23.9141 132.17 23.8158 131.552 23.8329C130.88 23.8038 130.215 23.9799 129.648 24.3376C129.122 24.7123 128.68 25.1914 128.35 25.7446C128.263 25.5724 128.152 25.3755 128.014 25.1538C127.861 24.9145 127.667 24.7036 127.441 24.5308C127.163 24.321 126.854 24.1557 126.524 24.0408C126.082 23.8931 125.616 23.8239 125.15 23.8364C124.755 23.8332 124.361 23.8877 123.982 23.9981C123.639 24.0971 123.312 24.2414 123.008 24.4272C122.732 24.5962 122.481 24.802 122.262 25.039C122.065 25.25 121.901 25.489 121.775 25.7481L121.731 25.7481C121.731 25.4611 121.724 25.1825 121.71 24.9081C121.696 24.6337 121.688 24.3642 121.688 24.0919L120.088 24.0919C120.088 24.4218 120.102 24.787 120.131 25.1874C120.159 25.5878 120.174 26.0174 120.174 26.4761L120.174 34.1418L121.863 34.1418L121.863 29.246C121.857 28.7175 121.919 28.1904 122.047 27.6773C122.155 27.2375 122.346 26.8221 122.611 26.4537C122.862 26.1108 123.197 25.8373 123.584 25.6592C124.03 25.4627 124.514 25.367 125.002 25.3792C125.291 25.3547 125.581 25.4066 125.843 25.5295C126.105 25.6525 126.33 25.8421 126.494 26.0792C126.856 26.8157 127.013 27.6351 126.949 28.4522L126.949 34.1432L128.633 34.1432L128.633 28.343C128.628 27.9297 128.698 27.5188 128.839 27.1299C128.964 26.7851 129.156 26.4679 129.403 26.1961C129.636 25.9416 129.92 25.737 130.236 25.5948C130.555 25.4513 130.902 25.378 131.253 25.3799C131.669 25.3649 132.084 25.4456 132.464 25.6158C132.764 25.7595 133.024 25.9736 133.221 26.2395C133.411 26.5027 133.544 26.8024 133.611 27.1194C133.683 27.4511 133.719 27.7895 133.719 28.1288L133.719 34.1418L135.403 34.1418L135.403 28.0427C135.409 27.4537 135.344 26.8661 135.208 26.2927Z" fill="#FFFFFF" fill-opacity="1.000000" fill-rule="nonzero"/>
	</g>
</svg>
